<?xml version="1.0" encoding="utf-8"?>
<!-- Generator: Adobe Illustrator 24.1.1, SVG Export Plug-In . SVG Version: 6.00 Build 0)  -->
<svg version="1.1"
	 id="svg8" inkscape:version="0.92.3 (2405546, 2018-03-11)" sodipodi:docname="logo.svg" xmlns:cc="http://creativecommons.org/ns#" xmlns:dc="http://purl.org/dc/elements/1.1/" xmlns:inkscape="http://www.inkscape.org/namespaces/inkscape" xmlns:rdf="http://www.w3.org/1999/02/22-rdf-syntax-ns#" xmlns:sodipodi="http://sodipodi.sourceforge.net/DTD/sodipodi-0.dtd" xmlns:svg="http://www.w3.org/2000/svg"
	 xmlns="http://www.w3.org/2000/svg" xmlns:xlink="http://www.w3.org/1999/xlink" x="0px" y="0px" viewBox="0 0 96.4 96.4"
	 style="enable-background:new 0 0 96.4 96.4;" xml:space="preserve">
<style type="text/css">
	.st0{fill:none;stroke:#080808;stroke-width:3.515;stroke-miterlimit:11.3386;}
	.st1{enable-background:new    ;}
</style>
<sodipodi:namedview  bordercolor="#666666" borderopacity="1.0" fit-margin-bottom="2" fit-margin-left="2" fit-margin-right="2" fit-margin-top="2" id="base" inkscape:current-layer="layer1" inkscape:cx="-81.417753" inkscape:cy="115.8028" inkscape:document-units="mm" inkscape:pageopacity="0.0" inkscape:pageshadow="2" inkscape:window-height="1019" inkscape:window-maximized="1" inkscape:window-width="1920" inkscape:window-x="0" inkscape:window-y="0" inkscape:zoom="2.8" pagecolor="#ffffff" showgrid="false">
	</sodipodi:namedview>
<g id="layer1" transform="translate(-20.456548,-47.129761)" inkscape:groupmode="layer" inkscape:label="Layer 1">
	<ellipse id="path4537" class="st0" cx="68.6" cy="95.3" rx="41.5" ry="41.5"/>
	<g class="st1">
		<path d="M42.7,105.9H31.4v-20h11.3v2.8h-8v5.4h7.5v2.7h-7.5v6.3h8V105.9z"/>
		<path d="M65.5,105.9h-3.6l-3.4-11.9c-0.1-0.5-0.3-1.3-0.5-2.2c-0.2-1-0.4-1.7-0.4-2c-0.1,0.6-0.2,1.3-0.4,2.3s-0.4,1.6-0.5,2.1
			l-3.3,11.9h-3.6l-2.6-10l-2.6-10h3.3l2.9,11.6c0.4,1.9,0.8,3.5,1,4.9c0.1-0.8,0.3-1.6,0.5-2.6c0.2-1,0.4-1.7,0.5-2.3l3.3-11.7h3.2
			l3.3,11.7c0.3,1.1,0.7,2.7,1,4.9c0.1-1.3,0.5-3,1-5l2.8-11.6h3.3L65.5,105.9z"/>
		<path d="M85.9,105.9l-2-5.6h-7.6l-2,5.6h-3.4l7.5-20.1h3.6l7.5,20.1H85.9z M83,97.5l-1.9-5.4c-0.1-0.4-0.3-0.9-0.6-1.7
			c-0.2-0.8-0.4-1.4-0.5-1.7c-0.2,1.1-0.6,2.3-1.1,3.7l-1.8,5.2H83z"/>
		<path d="M100.5,88.4c-1.9,0-3.4,0.7-4.4,2c-1.1,1.3-1.6,3.2-1.6,5.5c0,2.5,0.5,4.3,1.6,5.6s2.5,1.9,4.5,1.9c0.8,0,1.7-0.1,2.5-0.3
			s1.6-0.4,2.5-0.6v2.8c-1.6,0.6-3.3,0.9-5.3,0.9c-2.9,0-5.2-0.9-6.7-2.7c-1.6-1.8-2.4-4.3-2.4-7.6c0-2.1,0.4-3.9,1.1-5.5
			s1.9-2.8,3.3-3.6c1.4-0.8,3.1-1.2,5.1-1.2c2,0,3.9,0.4,5.7,1.3l-1.2,2.7c-0.7-0.3-1.4-0.6-2.1-0.8
			C102.1,88.5,101.3,88.4,100.5,88.4z"/>
	</g>
</g>
</svg>
